####
#
# OBJ File Generated by Meshlab
#
####
# Object mill_box.obj
#
# Vertices: 30
# Faces: 58
#
####
vn 0.000014 -1.852115 -4.471607
v 0.000000 -0.050600 -0.027502
vn -0.005513 1.867171 4.465338
v 0.000000 0.050600 0.027502
vn 0.218272 0.001251 4.835076
v 0.105600 0.000000 0.027500
vn -1.483499 -4.295710 -1.664846
v -0.105600 -0.055000 -0.023102
vn -4.772337 0.806359 0.013548
v -0.110000 0.050600 0.000000
vn -3.258586 3.150662 1.697216
v -0.109283 0.053007 0.023102
vn 0.000000 -0.000210 4.840000
v -0.105600 0.000000 0.027500
vn 1.653198 -4.238060 1.652690
v 0.105600 -0.055000 0.023098
vn 1.653768 -1.653118 -4.237671
v 0.105600 -0.050600 -0.027502
vn 4.256682 1.607437 -1.649971
v 0.110000 0.050600 -0.023098
vn 1.618415 4.249033 -1.658930
v 0.105600 0.055000 -0.023098
vn 0.000000 -4.471577 -1.852188
v 0.000000 -0.055000 -0.023102
vn -0.017804 4.476716 -1.839647
v 0.000000 0.055000 -0.023098
vn -0.025703 4.470803 1.853877
v 0.000000 0.055000 0.023102
vn -4.238887 -1.650837 1.652928
v -0.110000 -0.050600 0.023098
vn -1.653291 -1.653360 4.237762
v -0.105600 -0.050600 0.027498
vn -1.653285 -4.237801 1.653269
v -0.105600 -0.055000 0.023098
vn -4.138217 -1.882829 -1.660035
v -0.109927 -0.051401 -0.023102
vn -1.619444 -1.614658 -4.265663
v -0.105600 -0.050600 -0.027502
vn -1.401219 1.679806 -4.317457
v -0.105600 0.050600 -0.027500
vn -1.555719 4.304472 -1.573805
v -0.105600 0.055000 -0.023098
vn -4.084572 1.649265 -2.005442
v -0.109850 0.050600 -0.024237
vn -1.578315 2.041354 4.094801
v -0.105600 0.050600 0.027502
vn 1.653422 -4.237707 -1.653372
v 0.105600 -0.055000 -0.023102
vn 4.245499 -1.642324 -1.644417
v 0.110000 -0.050600 -0.023100
vn 1.661674 -1.643832 4.238191
v 0.105600 -0.050600 0.027500
vn 4.247573 -1.627696 1.653582
v 0.110000 -0.050600 0.023100
vn 1.653298 1.653350 -4.237764
v 0.105600 0.050600 -0.027498
vn 2.052083 1.727926 4.028502
v 0.106401 0.050600 0.027427
vn 3.206773 3.255040 1.595910
v 0.108711 0.053711 0.023102
# 30 vertices, 0 vertices normals

f 5//5 15//15 6//6
f 22//22 18//18 5//5
f 15//15 5//5 18//18
f 30//30 27//27 25//25
f 30//30 25//25 10//10
f 8//8 17//17 4//4
f 8//8 4//4 12//12
f 8//8 12//12 24//24
f 20//20 1//1 19//19
f 9//9 1//1 28//28
f 20//20 28//28 1//1
f 13//13 21//21 6//6
f 13//13 6//6 14//14
f 11//11 13//13 14//14
f 11//11 14//14 30//30
f 7//7 2//2 23//23
f 3//3 29//29 2//2
f 16//16 26//26 2//2
f 26//26 3//3 2//2
f 7//7 16//16 2//2
f 4//4 15//15 18//18
f 4//4 17//17 15//15
f 20//20 18//18 22//22
f 20//20 19//19 18//18
f 6//6 21//21 22//22
f 5//5 6//6 22//22
f 23//23 15//15 16//16
f 23//23 16//16 7//7
f 15//15 23//23 6//6
f 24//24 25//25 8//8
f 25//25 27//27 8//8
f 28//28 10//10 25//25
f 28//28 25//25 9//9
f 30//30 10//10 11//11
f 26//26 27//27 30//30
f 26//26 30//30 29//29
f 26//26 29//29 3//3
f 24//24 4//4 12//12
f 9//9 24//24 12//12
f 4//4 24//24 12//12
f 1//1 12//12 19//19
f 9//9 12//12 1//1
f 12//12 4//4 19//19
f 13//13 28//28 20//20
f 28//28 13//13 11//11
f 13//13 20//20 21//21
f 26//26 16//16 17//17
f 26//26 17//17 8//8
f 30//30 14//14 2//2
f 2//2 29//29 30//30
f 2//2 6//6 23//23
f 2//2 14//14 6//6
f 17//17 16//16 15//15
f 19//19 4//4 18//18
f 22//22 21//21 20//20
f 9//9 25//25 24//24
f 27//27 26//26 8//8
f 10//10 28//28 11//11
# 58 faces, 0 coords texture

# End of File
