####
#
# OBJ File Generated by Meshlab
#
####
# Object 0.obj
#
# Vertices: 26
# Faces: 50
#
####
vn 1.279946 1.810133 1.280140
v 0.038403 -0.036797 0.002262
vn 0.003729 0.168445 -2.554450
v -0.000003 0.040000 -0.036138
vn -1.672333 -0.979714 1.672442
v -0.038397 -0.036803 0.002262
vn 0.966723 -0.874344 2.203309
v 0.002267 -0.036800 0.038400
vn 2.365119 0.000239 -0.979702
v 0.002262 0.000000 0.038400
vn -0.966612 -0.874528 2.203285
v -0.002259 -0.036800 0.038400
vn -0.000111 2.241432 1.236763
v -0.000003 0.040000 0.036138
vn -1.407638 -0.837687 -1.967342
v -0.073059 -0.036808 -0.039238
vn -2.316794 -0.835896 0.698101
v -0.074533 -0.036808 -0.033874
vn -1.762700 0.844303 -1.653373
v -0.074677 0.036792 -0.038256
vn 2.196691 -0.865341 0.989613
v 0.074541 -0.036794 -0.033874
vn 0.000128 -2.560000 -0.000099
v 0.036141 -0.039997 0.000000
vn 1.672362 0.979654 1.672449
v 0.038397 0.036803 0.002262
vn 0.692385 2.365462 0.691948
v 0.036133 0.040003 0.000000
vn 1.758357 -0.839511 -1.660422
v 0.074677 -0.036794 -0.038256
vn -0.000105 1.803122 -1.817237
v -0.000003 0.036800 -0.039338
vn -1.163899 -2.230660 -0.472329
v -0.072270 -0.040008 -0.036138
vn 0.000237 -2.241448 1.236735
v 0.000005 -0.040000 0.036138
vn -0.966700 0.874371 2.203309
v -0.002266 0.036800 0.038400
vn 0.966583 0.874396 2.203350
v 0.002259 0.036800 0.038400
vn -2.196755 0.865210 0.989587
v -0.074541 0.036792 -0.033875
vn -1.000745 2.280253 -0.593765
v -0.072278 0.039992 -0.036138
vn 1.000708 -2.280237 -0.593889
v 0.072278 -0.039994 -0.036138
vn 2.343851 0.747157 0.708322
v 0.074534 0.036806 -0.033875
vn 1.279658 2.189219 -0.351275
v 0.072683 0.039954 -0.035726
vn 1.379491 0.866755 -1.974675
v 0.073059 0.036806 -0.039238
# 26 vertices, 0 vertices normals

f 3//3 21//21 9//9
f 19//19 3//3 6//6
f 21//21 3//3 19//19
f 1//1 5//5 4//4
f 13//13 20//20 5//5
f 5//5 11//11 24//24
f 24//24 13//13 5//5
f 11//11 5//5 1//1
f 16//16 26//26 15//15
f 10//10 16//16 8//8
f 15//15 8//8 16//16
f 17//17 23//23 12//12
f 12//12 18//18 17//17
f 2//2 14//14 25//25
f 22//22 7//7 2//2
f 14//14 2//2 7//7
f 9//9 17//17 3//3
f 9//9 18//18 3//3
f 3//3 18//18 6//6
f 9//9 3//3 18//18
f 17//17 18//18 3//3
f 20//20 19//19 6//6
f 20//20 6//6 4//4
f 20//20 4//4 5//5
f 22//22 21//21 19//19
f 22//22 19//19 7//7
f 8//8 9//9 21//21
f 8//8 21//21 10//10
f 18//18 23//23 11//11
f 18//18 11//11 4//4
f 11//11 1//1 4//4
f 18//18 12//12 23//23
f 26//26 24//24 11//11
f 26//26 11//11 15//15
f 20//20 13//13 7//7
f 7//7 24//24 14//14
f 24//24 7//7 13//13
f 14//14 24//24 25//25
f 23//23 17//17 8//8
f 23//23 8//8 15//15
f 26//26 10//10 22//22
f 25//25 26//26 22//22
f 25//25 22//22 2//2
f 16//16 10//10 26//26
f 8//8 17//17 9//9
f 4//4 6//6 18//18
f 19//19 20//20 7//7
f 22//22 10//10 21//21
f 23//23 15//15 11//11
f 26//26 25//25 24//24
# 50 faces, 0 coords texture

# End of File
